<?xml version="1.0" encoding="UTF-8"?>
<svg width="1200" height="780" viewBox="0 0 1200 780" fill="none" xmlns="http://www.w3.org/2000/svg">
  <rect width="1200" height="780" rx="40" fill="#10141B" />
  <rect x="40" y="40" width="1120" height="700" rx="32" fill="#171C25" stroke="#2A3442" stroke-width="2" />
  <rect x="72" y="72" width="102" height="34" rx="17" fill="#19351B" />
  <text x="96" y="95" fill="#61D44C" font-size="20" font-weight="700">UPWORK</text>
  <circle cx="1066" cy="90" r="18" fill="#232A36" />
  <path d="M1056 80L1076 100M1076 80L1056 100" stroke="#B8C3D9" stroke-width="2.8" stroke-linecap="round" />
    <text x="84" y="120" fill="#ffffff" font-size="44" font-weight="700">WHOP Storefront and Discord</text>
    <text x="84" y="166" fill="#ffffff" font-size="44" font-weight="700">Integration Tester</text>
  <text x="84" y="214" fill="#DCE4F6" font-size="26" font-weight="500">Oct 1, 2025 - Oct 2, 2025</text>
  <text x="84" y="258" fill="#7EF06A" font-size="22" font-weight="600">Subscription and integration testing</text>
  <text x="820" y="134" fill="#ffffff" font-size="34" font-weight="700">$25 earned</text>
    <text x="820" y="176" fill="#dce4f6" font-size="26" font-weight="600">Fixed price</text>
    <text x="820" y="208" fill="#dce4f6" font-size="26" font-weight="600">AUS - Birchgrove</text>
    <text x="820" y="240" fill="#dce4f6" font-size="26" font-weight="600">5.0 review</text>
  <line x1="84" y1="304" x2="1116" y2="304" stroke="#2A3442" stroke-width="2" />
  <text x="84" y="358" fill="#ffffff" font-size="28" font-weight="700">Client snapshot</text>
  <text x="84" y="402" fill="#61D44C" font-size="24" font-weight="600">Nice to work with him</text>
  <rect x="84" y="454" width="1032" height="118" rx="26" fill="#11161E" stroke="#263041" stroke-width="2" />
  <text x="118" y="504" fill="#ffffff" font-size="24" font-weight="700">Project summary</text>
  <text x="118" y="544" fill="#CCD6E8" font-size="22">Structured directly from your Upwork project screenshot</text>
    <rect x="84" y="616" width="142" height="38" rx="19" fill="#232a36" />
    <text x="102" y="641" fill="#dfe8ff" font-size="20" font-weight="600">WHOP</text>
    <rect x="248" y="616" width="142" height="38" rx="19" fill="#232a36" />
    <text x="266" y="641" fill="#dfe8ff" font-size="20" font-weight="600">Discord</text>
    <rect x="412" y="616" width="142" height="38" rx="19" fill="#232a36" />
    <text x="430" y="641" fill="#dfe8ff" font-size="20" font-weight="600">Storefront</text>
</svg>